<?xml version="1.0" encoding="UTF-8" standalone="no"?>
<!-- Created with Inkscape (http://www.inkscape.org/) -->

<svg
   width="89.240135mm"
   height="18.699484mm"
   viewBox="0 0 89.240133 18.699484"
   version="1.1"
   id="svg5446"
   inkscape:version="1.1 (c68e22c387, 2021-05-23)"
   sodipodi:docname="basemap-logo-text.svg"
   xmlns:inkscape="http://www.inkscape.org/namespaces/inkscape"
   xmlns:sodipodi="http://sodipodi.sourceforge.net/DTD/sodipodi-0.dtd"
   xmlns="http://www.w3.org/2000/svg"
   xmlns:svg="http://www.w3.org/2000/svg">
  <sodipodi:namedview
     id="namedview5448"
     pagecolor="#ffffff"
     bordercolor="#666666"
     borderopacity="1.0"
     inkscape:pageshadow="2"
     inkscape:pageopacity="0.0"
     inkscape:pagecheckerboard="0"
     inkscape:document-units="mm"
     showgrid="false"
     inkscape:zoom="1.8753963"
     inkscape:cx="205.02333"
     inkscape:cy="33.85951"
     inkscape:window-width="1920"
     inkscape:window-height="1017"
     inkscape:window-x="-8"
     inkscape:window-y="-8"
     inkscape:window-maximized="1"
     inkscape:current-layer="text1476-7"
     width="90mm" />
  <defs
     id="defs5443" />
  <g
     inkscape:label="Ebene 1"
     inkscape:groupmode="layer"
     id="layer1"
     transform="translate(26.596468,-20.530727)">
    <g
       id="g11857"
       transform="translate(-5.6631931,-0.5576351)">
      <g
         aria-label="basemap.de"
         id="text1476-7"
         style="font-size:14.1111px;line-height:1.25;letter-spacing:0px;word-spacing:0px;stroke-width:0.264583"
         transform="translate(-26.946528,2.2522621)">
        <path
           d="m 13.050098,32.942694 c 1.735665,0 3.358441,-1.566332 3.358441,-4.289774 0,-2.412999 -1.171221,-4.007553 -3.118553,-4.007553 -0.77611,0 -1.566332,0.381 -2.18722,0.945444 l 0.05644,-1.269999 V 21.484481 H 9.0848787 v 11.260658 h 1.6227763 l 0.183444,-0.832555 h 0.05645 c 0.634999,0.663221 1.396999,1.03011 2.102554,1.03011 z m -0.465667,-1.707443 c -0.423333,0 -0.931332,-0.155222 -1.425221,-0.592666 v -3.471331 c 0.536222,-0.550333 1.015999,-0.818444 1.552221,-0.818444 1.086555,0 1.566332,0.832555 1.566332,2.342443 0,1.721554 -0.733777,2.539998 -1.693332,2.539998 z"
           style="font-weight:bold;font-family:'Noto Sans HK';-inkscape-font-specification:'Noto Sans HK Bold'"
           id="path1053" />
        <path
           d="m 19.922165,32.942694 c 0.90311,0 1.693332,-0.451555 2.384776,-1.044221 h 0.05644 l 0.141111,0.846666 h 1.693332 v -4.61433 c 0,-2.285998 -1.03011,-3.485442 -3.033886,-3.485442 -1.241777,0 -2.370665,0.465666 -3.301998,1.044222 l 0.747888,1.368776 c 0.733778,-0.423333 1.439333,-0.747888 2.17311,-0.747888 0.973666,0 1.312332,0.592666 1.354666,1.368777 -3.189109,0.338666 -4.557886,1.227665 -4.557886,2.920997 0,1.340555 0.931333,2.342443 2.342443,2.342443 z m 0.677333,-1.622777 c -0.606778,0 -1.044222,-0.26811 -1.044222,-0.888999 0,-0.705555 0.649111,-1.241777 2.582332,-1.481665 v 1.594554 c -0.508,0.493888 -0.945444,0.77611 -1.53811,0.77611 z"
           style="font-weight:bold;font-family:'Noto Sans HK';-inkscape-font-specification:'Noto Sans HK Bold'"
           id="path1055" />
        <path
           d="m 28.572265,32.942694 c 2.060221,0 3.146775,-1.114777 3.146775,-2.497665 0,-1.467554 -1.15711,-1.989665 -2.201331,-2.384776 -0.832555,-0.310444 -1.566333,-0.52211 -1.566333,-1.100665 0,-0.451556 0.338667,-0.762 1.058333,-0.762 0.578555,0 1.128888,0.268111 1.693332,0.677333 l 0.931333,-1.255888 c -0.649111,-0.493889 -1.53811,-0.973666 -2.681109,-0.973666 -1.806221,0 -2.94922,1.001888 -2.94922,2.412998 0,1.326444 1.114777,1.933221 2.116665,2.314221 0.832555,0.324555 1.650998,0.592666 1.650998,1.185332 0,0.493889 -0.352777,0.832555 -1.142999,0.832555 -0.733777,0 -1.41111,-0.310444 -2.116665,-0.860777 l -0.945443,1.298221 c 0.790221,0.649111 1.947331,1.114777 3.005664,1.114777 z"
           style="font-weight:bold;font-family:'Noto Sans HK';-inkscape-font-specification:'Noto Sans HK Bold'"
           id="path1057" />
        <path
           d="m 36.742575,32.942694 c 0.973666,0 1.975554,-0.338666 2.751665,-0.874888 l -0.705555,-1.269999 c -0.564444,0.352777 -1.128888,0.550333 -1.777999,0.550333 -1.171221,0 -2.017887,-0.677333 -2.187221,-1.975554 h 4.86833 c 0.05644,-0.183445 0.09878,-0.564444 0.09878,-0.959555 0,-2.17311 -1.128888,-3.767664 -3.301998,-3.767664 -1.876776,0 -3.682997,1.594554 -3.682997,4.148664 0,2.610553 1.721554,4.148663 3.936997,4.148663 z m -1.947332,-4.952996 c 0.155222,-1.142999 0.889,-1.735665 1.721554,-1.735665 1.016,0 1.495777,0.677332 1.495777,1.735665 z"
           style="font-weight:bold;font-family:'Noto Sans HK';-inkscape-font-specification:'Noto Sans HK Bold'"
           id="path1059" />
        <path
           d="m 41.49801,32.745139 h 2.074332 v -5.432774 c 0.550333,-0.592666 1.058332,-0.888999 1.509888,-0.888999 0.747888,0 1.114776,0.423333 1.114776,1.650998 v 4.670775 h 2.060221 v -5.432774 c 0.564444,-0.592666 1.072444,-0.888999 1.523999,-0.888999 0.747888,0 1.100666,0.423333 1.100666,1.650998 v 4.670775 h 2.074331 v -4.924774 c 0,-1.989665 -0.77611,-3.174998 -2.455331,-3.174998 -1.03011,0 -1.79211,0.620888 -2.511776,1.382888 -0.380999,-0.874888 -1.044221,-1.382888 -2.173109,-1.382888 -1.030111,0 -1.763888,0.564444 -2.427109,1.255888 h -0.04233 l -0.155222,-1.058333 h -1.693332 z"
           style="fill:#ff0000"
           id="path1061" />
        <path
           d="m 57.048423,32.942694 c 0.90311,0 1.693332,-0.451555 2.384776,-1.044221 h 0.05644 l 0.141111,0.846666 h 1.693332 v -4.61433 c 0,-2.285998 -1.03011,-3.485442 -3.033886,-3.485442 -1.241777,0 -2.370665,0.465666 -3.301998,1.044222 l 0.747888,1.368776 c 0.733778,-0.423333 1.439333,-0.747888 2.17311,-0.747888 0.973666,0 1.312332,0.592666 1.354665,1.368777 -3.189108,0.338666 -4.557885,1.227665 -4.557885,2.920997 0,1.340555 0.931333,2.342443 2.342443,2.342443 z m 0.677333,-1.622777 c -0.606778,0 -1.044222,-0.26811 -1.044222,-0.888999 0,-0.705555 0.649111,-1.241777 2.582331,-1.481665 v 1.594554 c -0.507999,0.493888 -0.945443,0.77611 -1.538109,0.77611 z"
           style="fill:#ff0000"
           id="path1063" />
        <path
           d="m 63.440748,35.779025 h 2.074331 v -2.398887 l -0.07055,-1.298221 c 0.606777,0.550333 1.269999,0.860777 1.961443,0.860777 1.735665,0 3.358442,-1.566332 3.358442,-4.275663 0,-2.42711 -1.157111,-4.021664 -3.104442,-4.021664 -0.846666,0 -1.66511,0.451555 -2.328332,1.015999 h -0.04233 l -0.155222,-0.818444 h -1.693332 z m 3.499553,-4.543774 c -0.423333,0 -0.931333,-0.155222 -1.425222,-0.592666 v -3.471331 c 0.536222,-0.550333 1.016,-0.818444 1.552221,-0.818444 1.086555,0 1.566333,0.832555 1.566333,2.342443 0,1.721554 -0.733778,2.539998 -1.693332,2.539998 z"
           style="fill:#ff0000"
           id="path1065" />
        <path
           d="m 73.530155,32.942694 c 0.747889,0 1.298221,-0.592666 1.298221,-1.354666 0,-0.77611 -0.550332,-1.354665 -1.298221,-1.354665 -0.733777,0 -1.28411,0.578555 -1.28411,1.354665 0,0.762 0.550333,1.354666 1.28411,1.354666 z"
           style="fill:#ff0000"
           id="path1067" />
        <path
           d="m 79.724911,32.942694 c 0.818444,0 1.608665,-0.451555 2.18722,-1.015999 h 0.05644 l 0.155222,0.818444 h 1.679221 V 21.484481 h -2.060221 v 2.779886 l 0.07056,1.241777 c -0.564444,-0.522111 -1.114777,-0.860777 -2.003777,-0.860777 -1.707443,0 -3.316108,1.580443 -3.316108,4.148664 0,2.596442 1.269999,4.148663 3.231442,4.148663 z m 0.536222,-1.707443 c -1.044222,0 -1.636888,-0.818444 -1.636888,-2.455332 0,-1.580443 0.747888,-2.427109 1.636888,-2.427109 0.493888,0 1.001888,0.155222 1.481665,0.592666 v 3.471331 c -0.465666,0.592666 -0.931333,0.818444 -1.481665,0.818444 z"
           style="font-weight:bold;font-family:'Noto Sans HK';-inkscape-font-specification:'Noto Sans HK Bold';fill:#ffcc00"
           id="path1069" />
        <path
           d="m 89.475672,32.942694 c 0.973666,0 1.975554,-0.338666 2.751665,-0.874888 l -0.705555,-1.269999 c -0.564444,0.352777 -1.128888,0.550333 -1.777999,0.550333 -1.171221,0 -2.017887,-0.677333 -2.187221,-1.975554 h 4.86833 c 0.05644,-0.183445 0.09878,-0.564444 0.09878,-0.959555 0,-2.17311 -1.128888,-3.767664 -3.301998,-3.767664 -1.876776,0 -3.682997,1.594554 -3.682997,4.148664 0,2.610553 1.721554,4.148663 3.936997,4.148663 z M 87.52834,27.989698 c 0.155222,-1.142999 0.889,-1.735665 1.721555,-1.735665 1.015999,0 1.495776,0.677332 1.495776,1.735665 z"
           style="font-weight:bold;font-family:'Noto Sans HK';-inkscape-font-specification:'Noto Sans HK Bold';fill:#ffcc00"
           id="path1071" />
      </g>
    </g>
  </g>
</svg>
