<svg id="svg5446" xmlns="http://www.w3.org/2000/svg" viewBox="0 0 236.52 156.86"><defs><style>.cls-1{fill:red;}.cls-2{fill:gold;}</style></defs><g id="layer1"><g id="g11857"><g id="text1476-7"><path id="path1053" d="M20.54,90.6c4.92,0,9.52-4.44,9.52-12.16,0-6.84-3.32-11.36-8.84-11.36A9.56,9.56,0,0,0,15,69.76l.16-3.6v-8H9.3V90h4.6l.52-2.36h.16a8.56,8.56,0,0,0,6,2.92Zm-1.32-4.84a6.1,6.1,0,0,1-4-1.68V74.24c1.52-1.56,2.88-2.32,4.4-2.32,3.08,0,4.44,2.36,4.44,6.64C24,83.44,21.94,85.76,19.22,85.76Z" transform="translate(-9.3 -6.61)"/><path id="path1055" d="M40,90.6a10.53,10.53,0,0,0,6.76-3h.16l.4,2.4h4.8V77c0-6.48-2.92-9.88-8.6-9.88a17.89,17.89,0,0,0-9.36,3l2.12,3.88a12.66,12.66,0,0,1,6.16-2.12c2.76,0,3.72,1.68,3.84,3.88-9,1-12.92,3.48-12.92,8.28A6.36,6.36,0,0,0,40,90.6ZM41.94,86c-1.72,0-3-.76-3-2.52,0-2,1.84-3.52,7.32-4.2V83.8C44.86,85.2,43.62,86,41.94,86Z" transform="translate(-9.3 -6.61)"/><path id="path1057" d="M64.54,90.6c5.84,0,8.92-3.16,8.92-7.08,0-4.16-3.28-5.64-6.24-6.76-2.36-.88-4.44-1.48-4.44-3.12,0-1.28,1-2.16,3-2.16a8.34,8.34,0,0,1,4.8,1.92l2.64-3.56a12.42,12.42,0,0,0-7.6-2.76c-5.12,0-8.36,2.84-8.36,6.84,0,3.76,3.16,5.48,6,6.56,2.36.92,4.68,1.68,4.68,3.36,0,1.4-1,2.36-3.24,2.36a9.72,9.72,0,0,1-6-2.44L56,87.44a14.21,14.21,0,0,0,8.52,3.16Z" transform="translate(-9.3 -6.61)"/><path id="path1059" d="M87.7,90.6a14.1,14.1,0,0,0,7.8-2.48l-2-3.6a9.23,9.23,0,0,1-5,1.56c-3.32,0-5.72-1.92-6.2-5.6h13.8a11.05,11.05,0,0,0,.28-2.72c0-6.16-3.2-10.68-9.36-10.68-5.32,0-10.44,4.52-10.44,11.76,0,7.4,4.88,11.76,11.16,11.76Zm-5.52-14c.44-3.24,2.52-4.92,4.88-4.92,2.88,0,4.24,1.92,4.24,4.92Z" transform="translate(-9.3 -6.61)"/><path id="path1061" class="cls-1" d="M101.18,90h5.88V74.64c1.56-1.68,3-2.52,4.28-2.52,2.12,0,3.16,1.2,3.16,4.68V90h5.84V74.64q2.4-2.52,4.32-2.52c2.12,0,3.12,1.2,3.12,4.68V90h5.88v-14c0-5.64-2.2-9-7-9-2.92,0-5.08,1.76-7.12,3.92a6.1,6.1,0,0,0-6.16-3.92c-2.92,0-5,1.6-6.88,3.56h-.12l-.44-3h-4.8Z" transform="translate(-9.3 -6.61)"/><path id="path1063" class="cls-1" d="M145.26,90.6a10.53,10.53,0,0,0,6.76-3h.16l.4,2.4h4.8V77c0-6.48-2.92-9.88-8.6-9.88a17.89,17.89,0,0,0-9.36,3l2.12,3.88a12.66,12.66,0,0,1,6.16-2.12c2.76,0,3.72,1.68,3.84,3.88-9,1-12.92,3.48-12.92,8.28a6.36,6.36,0,0,0,6.64,6.64Zm1.92-4.6c-1.72,0-3-.76-3-2.52,0-2,1.84-3.52,7.32-4.2V83.8C150.1,85.2,148.86,86,147.18,86Z" transform="translate(-9.3 -6.61)"/><path id="path1065" class="cls-1" d="M163.38,98.64h5.88v-6.8l-.2-3.68a8.33,8.33,0,0,0,5.56,2.44c4.92,0,9.52-4.44,9.52-12.12,0-6.88-3.28-11.4-8.8-11.4a10.63,10.63,0,0,0-6.6,2.88h-.12l-.44-2.32h-4.8Zm9.92-12.88a6.1,6.1,0,0,1-4-1.68V74.24c1.52-1.56,2.88-2.32,4.4-2.32,3.08,0,4.44,2.36,4.44,6.64C178.1,83.44,176,85.76,173.3,85.76Z" transform="translate(-9.3 -6.61)"/><path id="path1067" class="cls-1" d="M192,90.6a3.85,3.85,0,1,0-3.64-3.84A3.68,3.68,0,0,0,192,90.6Z" transform="translate(-9.3 -6.61)"/><path id="path1069" d="M209.54,90.6a9.29,9.29,0,0,0,6.2-2.88h.16l.44,2.32h4.76V58.12h-5.84V66l.2,3.52a7.71,7.71,0,0,0-5.68-2.44c-4.84,0-9.4,4.48-9.4,11.76S204,90.6,209.54,90.6Zm1.52-4.84c-3,0-4.64-2.32-4.64-7,0-4.48,2.12-6.88,4.64-6.88a6,6,0,0,1,4.2,1.68v9.84A5.1,5.1,0,0,1,211.06,85.76Z" transform="translate(-9.3 -6.61)"/><path id="path1071" d="M237.18,90.6a14.1,14.1,0,0,0,7.8-2.48l-2-3.6a9.23,9.23,0,0,1-5,1.56c-3.32,0-5.72-1.92-6.2-5.6h13.8a11.05,11.05,0,0,0,.28-2.72c0-6.16-3.2-10.68-9.36-10.68-5.32,0-10.44,4.52-10.44,11.76,0,7.4,4.88,11.76,11.16,11.76Zm-5.52-14c.44-3.24,2.52-4.92,4.88-4.92,2.88,0,4.24,1.92,4.24,4.92Z" transform="translate(-9.3 -6.61)"/></g><path id="path3540" class="cls-2" d="M112.52,6.61l-2,2.44,3.71,19.21-7.73,3.8L91.75,33.84l-1.81,2.07.47,28.22-.14.34L94.07,66l.3-.74.16-.81-.45-26.78,13.24-1.59.66-.19,9.46-4.66L118.55,29,115,10.72h18.84L146,32.37l2.86.75L173.23,18.2l10.14,6.64,1.45,20.91-3.69,5,.29,2.77,6.77,5.94,2.08,18.92,0,1.75,4.11.08,0-1.87V78l-2.19-19.85-.68-1.32-5.94-5.22,3-4,.4-1.37-1.58-22.7L186.47,22l-12.09-7.9-2.19,0L148.54,28.5,136.84,7.66l-1.79-1Z" transform="translate(-9.3 -6.61)"/><path id="path3803" class="cls-2" d="M187.08,91.61l-.29.51-15.15,8.08-11.24,4-1,3.09L177.76,134l-12.09,9.52-.75,2,1.42,7.81-30.79,6-16.78-8.17-1.16-.19-14.52,1.81,7.57-21.16L109.4,129l-17.63-6.08L86.08,94.12l.14-.51-4-1.07-.26,1,0,.93,6,30.38,1.35,1.54,16.77,5.79-8,22.35,2.19,2.74,17.24-2.16,16.85,8.21,1.29.17L169.12,157l1.63-2.38-1.57-8.6,12.64-9.94.42-2.78L164.3,107.21l8.87-3.19.27-.13,15.8-8.42.81-.78.59-1Z" transform="translate(-9.3 -6.61)"/></g></g></svg>