<?xml version="1.0" encoding="UTF-8"?>
<svg width="236.56" height="40.52" version="1.1" viewBox="0 0 236.56 40.52" xmlns="http://www.w3.org/2000/svg" xmlns:cc="http://creativecommons.org/ns#" xmlns:dc="http://purl.org/dc/elements/1.1/" xmlns:rdf="http://www.w3.org/1999/02/22-rdf-syntax-ns#">
 <metadata>
  <rdf:RDF>
   <cc:Work rdf:about="">
    <dc:format>image/svg+xml</dc:format>
    <dc:type rdf:resource="http://purl.org/dc/dcmitype/StillImage"/>
    <dc:title/>
   </cc:Work>
  </rdf:RDF>
 </metadata>
 <defs>
  <style>.cls-1{fill:red;}.cls-2{fill:gold;}</style>
 </defs>
 <g transform="translate(0,-51.51)">
  <path transform="translate(-9.3,-6.61)" d="m20.54 90.6c4.92 0 9.52-4.44 9.52-12.16 0-6.84-3.32-11.36-8.84-11.36a9.56 9.56 0 0 0-6.22 2.68l0.16-3.6v-8h-5.86v31.84h4.6l0.52-2.36h0.16a8.56 8.56 0 0 0 6 2.92zm-1.32-4.84a6.1 6.1 0 0 1-4-1.68v-9.84c1.52-1.56 2.88-2.32 4.4-2.32 3.08 0 4.44 2.36 4.44 6.64-0.06 4.88-2.12 7.2-4.84 7.2z"/>
  <path transform="translate(-9.3,-6.61)" d="m40 90.6a10.53 10.53 0 0 0 6.76-3h0.16l0.4 2.4h4.8v-13c0-6.48-2.92-9.88-8.6-9.88a17.89 17.89 0 0 0-9.36 3l2.12 3.88a12.66 12.66 0 0 1 6.16-2.12c2.76 0 3.72 1.68 3.84 3.88-9 1-12.92 3.48-12.92 8.28a6.36 6.36 0 0 0 6.64 6.56zm1.94-4.6c-1.72 0-3-0.76-3-2.52 0-2 1.84-3.52 7.32-4.2v4.52c-1.4 1.4-2.64 2.2-4.32 2.2z"/>
  <path transform="translate(-9.3,-6.61)" d="m64.54 90.6c5.84 0 8.92-3.16 8.92-7.08 0-4.16-3.28-5.64-6.24-6.76-2.36-0.88-4.44-1.48-4.44-3.12 0-1.28 1-2.16 3-2.16a8.34 8.34 0 0 1 4.8 1.92l2.64-3.56a12.42 12.42 0 0 0-7.6-2.76c-5.12 0-8.36 2.84-8.36 6.84 0 3.76 3.16 5.48 6 6.56 2.36 0.92 4.68 1.68 4.68 3.36 0 1.4-1 2.36-3.24 2.36a9.72 9.72 0 0 1-6-2.44l-2.7 3.68a14.21 14.21 0 0 0 8.52 3.16z"/>
  <path transform="translate(-9.3,-6.61)" d="m87.7 90.6a14.1 14.1 0 0 0 7.8-2.48l-2-3.6a9.23 9.23 0 0 1-5 1.56c-3.32 0-5.72-1.92-6.2-5.6h13.8a11.05 11.05 0 0 0 0.28-2.72c0-6.16-3.2-10.68-9.36-10.68-5.32 0-10.44 4.52-10.44 11.76 0 7.4 4.88 11.76 11.16 11.76zm-5.52-14c0.44-3.24 2.52-4.92 4.88-4.92 2.88 0 4.24 1.92 4.24 4.92z"/>
  <path class="cls-1" transform="translate(-9.3,-6.61)" d="m101.18 90h5.88v-15.36c1.56-1.68 3-2.52 4.28-2.52 2.12 0 3.16 1.2 3.16 4.68v13.2h5.84v-15.36q2.4-2.52 4.32-2.52c2.12 0 3.12 1.2 3.12 4.68v13.2h5.88v-14c0-5.64-2.2-9-7-9-2.92 0-5.08 1.76-7.12 3.92a6.1 6.1 0 0 0-6.16-3.92c-2.92 0-5 1.6-6.88 3.56h-0.12l-0.44-3h-4.8z"/>
  <path class="cls-1" transform="translate(-9.3,-6.61)" d="m145.26 90.6a10.53 10.53 0 0 0 6.76-3h0.16l0.4 2.4h4.8v-13c0-6.48-2.92-9.88-8.6-9.88a17.89 17.89 0 0 0-9.36 3l2.12 3.88a12.66 12.66 0 0 1 6.16-2.12c2.76 0 3.72 1.68 3.84 3.88-9 1-12.92 3.48-12.92 8.28a6.36 6.36 0 0 0 6.64 6.64zm1.92-4.6c-1.72 0-3-0.76-3-2.52 0-2 1.84-3.52 7.32-4.2v4.52c-1.4 1.4-2.64 2.2-4.32 2.2z"/>
  <path class="cls-1" transform="translate(-9.3,-6.61)" d="m163.38 98.64h5.88v-6.8l-0.2-3.68a8.33 8.33 0 0 0 5.56 2.44c4.92 0 9.52-4.44 9.52-12.12 0-6.88-3.28-11.4-8.8-11.4a10.63 10.63 0 0 0-6.6 2.88h-0.12l-0.44-2.32h-4.8zm9.92-12.88a6.1 6.1 0 0 1-4-1.68v-9.84c1.52-1.56 2.88-2.32 4.4-2.32 3.08 0 4.44 2.36 4.44 6.64-0.04 4.88-2.14 7.2-4.84 7.2z"/>
  <path class="cls-1" transform="translate(-9.3,-6.61)" d="m192 90.6a3.85 3.85 0 1 0-3.64-3.84 3.68 3.68 0 0 0 3.64 3.84z"/>
  <path transform="translate(-9.3,-6.61)" d="m209.54 90.6a9.29 9.29 0 0 0 6.2-2.88h0.16l0.44 2.32h4.76v-31.92h-5.84v7.88l0.2 3.52a7.71 7.71 0 0 0-5.68-2.44c-4.84 0-9.4 4.48-9.4 11.76s3.62 11.76 9.16 11.76zm1.52-4.84c-3 0-4.64-2.32-4.64-7 0-4.48 2.12-6.88 4.64-6.88a6 6 0 0 1 4.2 1.68v9.84a5.1 5.1 0 0 1-4.2 2.36z"/>
  <path transform="translate(-9.3,-6.61)" d="m237.18 90.6a14.1 14.1 0 0 0 7.8-2.48l-2-3.6a9.23 9.23 0 0 1-5 1.56c-3.32 0-5.72-1.92-6.2-5.6h13.8a11.05 11.05 0 0 0 0.28-2.72c0-6.16-3.2-10.68-9.36-10.68-5.32 0-10.44 4.52-10.44 11.76 0 7.4 4.88 11.76 11.16 11.76zm-5.52-14c0.44-3.24 2.52-4.92 4.88-4.92 2.88 0 4.24 1.92 4.24 4.92z"/>
 </g>
</svg>
